<?xml version="1.0" standalone="no"?>
<!DOCTYPE svg PUBLIC "-//W3C//DTD SVG 20010904//EN"
 "http://www.w3.org/TR/2001/REC-SVG-20010904/DTD/svg10.dtd">
<svg version="1.0" xmlns="http://www.w3.org/2000/svg"
 width="1269.000000pt" height="1280.000000pt" viewBox="0 0 1269.000000 1280.000000"
 preserveAspectRatio="xMidYMid meet">
<metadata>
Created by potrace 1.15, written by Peter Selinger 2001-2017
</metadata>
<g transform="translate(0.000000,1280.000000) scale(0.100000,-0.100000)"
fill="#9e9e9e" stroke="none">
<path d="M6180 12794 c-566 -38 -1229 -183 -1885 -412 -472 -165 -844 -338
-1132 -524 -122 -80 -128 -92 -127 -263 1 -208 51 -396 254 -940 132 -354 157
-429 165 -480 6 -39 5 -41 -34 -63 -179 -100 -669 -636 -791 -864 -17 -31 -40
-60 -51 -63 -28 -9 -88 2 -194 36 -88 28 -156 55 -600 237 -372 152 -550 209
-686 219 -118 9 -117 10 -197 -129 -225 -393 -446 -940 -612 -1518 -189 -656
-283 -1190 -284 -1621 l-1 -205 27 -41 c78 -119 300 -190 911 -293 378 -65
508 -95 570 -136 34 -23 37 -28 37 -73 0 -66 25 -203 61 -341 83 -310 253
-756 340 -891 25 -39 28 -51 19 -73 -26 -70 -123 -159 -475 -436 -403 -317
-539 -443 -595 -553 l-33 -63 48 -84 c70 -124 219 -347 323 -485 556 -739
1450 -1537 2075 -1851 68 -35 73 -36 122 -25 75 17 143 61 246 158 113 108
196 207 442 527 204 266 312 387 367 410 33 13 38 12 105 -21 240 -121 968
-293 1241 -293 83 0 94 -8 123 -92 27 -80 46 -179 85 -453 101 -697 161 -932
272 -1055 l39 -43 200 6 c434 14 883 98 1430 269 564 177 1195 465 1586 723
123 82 134 103 126 242 -8 161 -63 318 -265 758 -145 319 -185 424 -186 500
l-1 59 61 41 c110 72 206 157 394 345 246 245 443 478 501 591 10 21 28 40 38
44 54 17 204 -34 616 -207 346 -146 568 -226 697 -252 77 -16 185 -21 224 -10
32 9 186 279 289 509 258 574 466 1318 564 2013 45 318 55 446 56 707 0 265
-2 275 -66 329 -114 96 -324 153 -829 226 -422 61 -564 94 -602 138 -10 10
-18 49 -23 101 -14 173 -66 385 -170 696 -76 231 -154 421 -199 494 -33 51
-30 70 18 132 42 56 142 140 411 349 296 230 408 324 513 435 86 90 142 173
142 211 0 31 -153 286 -289 482 -582 842 -1547 1780 -2123 2063 -64 31 -68 32
-120 20 -150 -33 -321 -204 -730 -731 -203 -261 -311 -377 -369 -395 -13 -4
-49 7 -102 33 -205 100 -681 218 -1033 257 -73 8 -146 12 -163 9 -41 -9 -65
13 -90 81 -28 75 -45 174 -101 587 -56 413 -78 537 -121 686 -33 115 -68 193
-107 235 l-26 27 -140 -2 c-78 -1 -161 -3 -186 -4z m555 -5045 c282 -34 520
-141 707 -318 108 -102 171 -185 237 -311 109 -210 159 -418 168 -696 17 -531
-141 -913 -482 -1167 -249 -186 -627 -278 -1013 -247 -685 55 -1109 448 -1208
1123 -23 155 -15 449 16 592 88 413 313 712 665 888 125 62 345 123 505 140
81 9 322 6 405 -4z"/>
</g>
</svg>
